<?xml version="1.0" encoding="UTF-8" standalone="no"?>
<!DOCTYPE svg PUBLIC "-//W3C//DTD SVG 1.1//EN"
 "http://www.w3.org/Graphics/SVG/1.1/DTD/svg11.dtd">
<!-- Generated by graphviz version 2.49.1 (20210923.0004)
 -->
<!-- Title: labeled partition DAG Pages: 1 -->
<svg width="278pt" height="294pt"
 viewBox="0.00 0.00 278.00 294.00" xmlns="http://www.w3.org/2000/svg" xmlns:xlink="http://www.w3.org/1999/xlink">
<g id="graph0" class="graph" transform="scale(1 1) rotate(0) translate(4 290)">
<title>labeled partition DAG</title>
<polygon fill="white" stroke="transparent" points="-4,4 -4,-290 274,-290 274,4 -4,4"/>
<!-- 5081790016 -->
<g id="node1" class="node">
<title>5081790016</title>
<polygon fill="none" stroke="black" points="0,-0.5 0,-36.5 54,-36.5 54,-0.5 0,-0.5"/>
<text text-anchor="middle" x="27" y="-14.8" font-family="Times,serif" font-size="14.00">AA</text>
</g>
<!-- 5081790640 -->
<g id="node2" class="node">
<title>5081790640</title>
<polygon fill="none" stroke="black" points="72,-0.5 72,-36.5 126,-36.5 126,-0.5 72,-0.5"/>
<text text-anchor="middle" x="99" y="-14.8" font-family="Times,serif" font-size="14.00">CT</text>
</g>
<!-- 5081789296 -->
<g id="node3" class="node">
<title>5081789296</title>
<polygon fill="none" stroke="black" points="44.5,-73.5 44.5,-119.5 115.5,-119.5 115.5,-73.5 44.5,-73.5"/>
<text text-anchor="middle" x="80" y="-104.3" font-family="Times,serif" font-size="14.00">CG</text>
<polyline fill="none" stroke="black" points="44.5,-96.5 115.5,-96.5 "/>
<text text-anchor="middle" x="63" y="-81.3" font-family="Times,serif" font-size="14.00">AA</text>
<polyline fill="none" stroke="black" points="81.5,-73.5 81.5,-96.5 "/>
<text text-anchor="middle" x="98.5" y="-81.3" font-family="Times,serif" font-size="14.00">CT</text>
</g>
<!-- 5081789296&#45;&gt;5081790016 -->
<g id="edge1" class="edge">
<title>5081789296:s&#45;&gt;5081790016:n</title>
<path fill="none" stroke="black" d="M63,-73C63,-54.62 39.23,-57.28 30.32,-46.79"/>
<polygon fill="black" stroke="black" points="33.53,-45.34 27,-37 26.9,-47.59 33.53,-45.34"/>
</g>
<!-- 5081789296&#45;&gt;5081790640 -->
<g id="edge2" class="edge">
<title>5081789296:s&#45;&gt;5081790640:n</title>
<path fill="none" stroke="black" d="M99,-73C99,-61 99,-55.75 99,-47.12"/>
<polygon fill="black" stroke="black" points="102.5,-47 99,-37 95.5,-47 102.5,-47"/>
</g>
<!-- 5081791072 -->
<g id="node4" class="node">
<title>5081791072</title>
<polygon fill="none" stroke="black" points="144,-0.5 144,-36.5 198,-36.5 198,-0.5 144,-0.5"/>
<text text-anchor="middle" x="171" y="-14.8" font-family="Times,serif" font-size="14.00">TA</text>
</g>
<!-- 5081791168 -->
<g id="node5" class="node">
<title>5081791168</title>
<polygon fill="none" stroke="black" points="216,-0.5 216,-36.5 270,-36.5 270,-0.5 216,-0.5"/>
<text text-anchor="middle" x="243" y="-14.8" font-family="Times,serif" font-size="14.00">CC</text>
</g>
<!-- 5081790976 -->
<g id="node6" class="node">
<title>5081790976</title>
<polygon fill="none" stroke="black" points="154.5,-73.5 154.5,-119.5 223.5,-119.5 223.5,-73.5 154.5,-73.5"/>
<text text-anchor="middle" x="189" y="-104.3" font-family="Times,serif" font-size="14.00">CA</text>
<polyline fill="none" stroke="black" points="154.5,-96.5 223.5,-96.5 "/>
<text text-anchor="middle" x="171.5" y="-81.3" font-family="Times,serif" font-size="14.00">TA</text>
<polyline fill="none" stroke="black" points="188.5,-73.5 188.5,-96.5 "/>
<text text-anchor="middle" x="206" y="-81.3" font-family="Times,serif" font-size="14.00">CC</text>
</g>
<!-- 5081790976&#45;&gt;5081791072 -->
<g id="edge3" class="edge">
<title>5081790976:s&#45;&gt;5081791072:n</title>
<path fill="none" stroke="black" d="M171,-73C171,-61 171,-55.75 171,-47.12"/>
<polygon fill="black" stroke="black" points="174.5,-47 171,-37 167.5,-47 174.5,-47"/>
</g>
<!-- 5081790976&#45;&gt;5081791168 -->
<g id="edge4" class="edge">
<title>5081790976:s&#45;&gt;5081791168:n</title>
<path fill="none" stroke="black" d="M206,-73C206,-54.18 230.9,-57.45 239.85,-46.57"/>
<polygon fill="black" stroke="black" points="243.19,-47.59 243,-37 236.54,-45.4 243.19,-47.59"/>
</g>
<!-- 5081747216 -->
<g id="node7" class="node">
<title>5081747216</title>
<polygon fill="none" stroke="black" points="73.5,-156.5 73.5,-202.5 194.5,-202.5 194.5,-156.5 73.5,-156.5"/>
<text text-anchor="middle" x="134" y="-187.3" font-family="Times,serif" font-size="14.00">CA</text>
<polyline fill="none" stroke="black" points="73.5,-179.5 194.5,-179.5 "/>
<text text-anchor="middle" x="104.5" y="-164.3" font-family="Times,serif" font-size="14.00">AA, CT</text>
<polyline fill="none" stroke="black" points="135.5,-156.5 135.5,-179.5 "/>
<text text-anchor="middle" x="165" y="-164.3" font-family="Times,serif" font-size="14.00">CC, TA</text>
</g>
<!-- 5081747216&#45;&gt;5081789296 -->
<g id="edge5" class="edge">
<title>5081747216:s&#45;&gt;5081789296:n</title>
<path fill="none" stroke="black" d="M104,-156C104,-140.83 89.06,-139.16 82.75,-129.68"/>
<polygon fill="black" stroke="black" points="86.1,-128.66 80,-120 79.37,-130.58 86.1,-128.66"/>
</g>
<!-- 5081747216&#45;&gt;5081790976 -->
<g id="edge6" class="edge">
<title>5081747216:s&#45;&gt;5081790976:n</title>
<path fill="none" stroke="black" d="M165,-156C165,-140.83 179.94,-139.16 186.25,-129.68"/>
<polygon fill="black" stroke="black" points="189.63,-130.58 189,-120 182.9,-128.66 189.63,-130.58"/>
</g>
<!-- 5081791792 -->
<g id="node8" class="node">
<title>5081791792</title>
<polygon fill="none" stroke="black" points="78.5,-239.5 78.5,-285.5 189.5,-285.5 189.5,-239.5 78.5,-239.5"/>
<text text-anchor="middle" x="134" y="-270.3" font-family="Times,serif" font-size="14.00">𝛒</text>
<polyline fill="none" stroke="black" points="78.5,-262.5 189.5,-262.5 "/>
<text text-anchor="middle" x="134" y="-247.3" font-family="Times,serif" font-size="14.00">AA, CC, CT, TA</text>
</g>
<!-- 5081791792&#45;&gt;5081747216 -->
<g id="edge7" class="edge">
<title>5081791792:s&#45;&gt;5081747216:n</title>
<path fill="none" stroke="black" d="M134,-239C134,-227 134,-221.75 134,-213.12"/>
<polygon fill="black" stroke="black" points="137.5,-213 134,-203 130.5,-213 137.5,-213"/>
</g>
</g>
</svg>
