<?xml version="1.0" encoding="UTF-8" standalone="no"?>
<!DOCTYPE svg PUBLIC "-//W3C//DTD SVG 1.1//EN"
 "http://www.w3.org/Graphics/SVG/1.1/DTD/svg11.dtd">
<!-- Generated by graphviz version 2.49.1 (20210923.0004)
 -->
<!-- Title: labeled partition DAG Pages: 1 -->
<svg width="278pt" height="191pt"
 viewBox="0.00 0.00 278.00 191.00" xmlns="http://www.w3.org/2000/svg" xmlns:xlink="http://www.w3.org/1999/xlink">
<g id="graph0" class="graph" transform="scale(1 1) rotate(0) translate(4 187)">
<title>labeled partition DAG</title>
<polygon fill="white" stroke="transparent" points="-4,4 -4,-187 274,-187 274,4 -4,4"/>
<!-- 5081790016 -->
<g id="node1" class="node">
<title>5081790016</title>
<polygon fill="none" stroke="black" points="0,-0.5 0,-36.5 54,-36.5 54,-0.5 0,-0.5"/>
<text text-anchor="middle" x="27" y="-14.8" font-family="Times,serif" font-size="14.00">AA</text>
</g>
<!-- 5081790640 -->
<g id="node2" class="node">
<title>5081790640</title>
<polygon fill="none" stroke="black" points="72,-0.5 72,-36.5 126,-36.5 126,-0.5 72,-0.5"/>
<text text-anchor="middle" x="99" y="-14.8" font-family="Times,serif" font-size="14.00">CT</text>
</g>
<!-- 5081789296 -->
<g id="node3" class="node">
<title>5081789296</title>
<polygon fill="none" stroke="black" points="72,-73.5 72,-109.5 126,-109.5 126,-73.5 72,-73.5"/>
<text text-anchor="middle" x="99" y="-87.8" font-family="Times,serif" font-size="14.00">CG</text>
</g>
<!-- 5081789296&#45;&gt;5081790016 -->
<g id="edge1" class="edge">
<title>5081789296:s&#45;&gt;5081790016:n</title>
<path fill="none" stroke="black" d="M99,-73C99,-41.42 42.89,-65.42 29.73,-46.87"/>
<polygon fill="black" stroke="black" points="33.04,-45.7 27,-37 26.3,-47.57 33.04,-45.7"/>
</g>
<!-- 5081789296&#45;&gt;5081790640 -->
<g id="edge2" class="edge">
<title>5081789296:s&#45;&gt;5081790640:n</title>
<path fill="none" stroke="black" d="M99,-73C99,-61 99,-55.75 99,-47.12"/>
<polygon fill="black" stroke="black" points="102.5,-47 99,-37 95.5,-47 102.5,-47"/>
</g>
<!-- 5081791072 -->
<g id="node4" class="node">
<title>5081791072</title>
<polygon fill="none" stroke="black" points="144,-0.5 144,-36.5 198,-36.5 198,-0.5 144,-0.5"/>
<text text-anchor="middle" x="171" y="-14.8" font-family="Times,serif" font-size="14.00">TA</text>
</g>
<!-- 5081791168 -->
<g id="node5" class="node">
<title>5081791168</title>
<polygon fill="none" stroke="black" points="216,-0.5 216,-36.5 270,-36.5 270,-0.5 216,-0.5"/>
<text text-anchor="middle" x="243" y="-14.8" font-family="Times,serif" font-size="14.00">CC</text>
</g>
<!-- 5081790976 -->
<g id="node6" class="node">
<title>5081790976</title>
<polygon fill="none" stroke="black" points="144,-73.5 144,-109.5 198,-109.5 198,-73.5 144,-73.5"/>
<text text-anchor="middle" x="171" y="-87.8" font-family="Times,serif" font-size="14.00">CA</text>
</g>
<!-- 5081790976&#45;&gt;5081791072 -->
<g id="edge3" class="edge">
<title>5081790976:s&#45;&gt;5081791072:n</title>
<path fill="none" stroke="black" d="M171,-73C171,-61 171,-55.75 171,-47.12"/>
<polygon fill="black" stroke="black" points="174.5,-47 171,-37 167.5,-47 174.5,-47"/>
</g>
<!-- 5081790976&#45;&gt;5081791168 -->
<g id="edge4" class="edge">
<title>5081790976:s&#45;&gt;5081791168:n</title>
<path fill="none" stroke="black" d="M171,-73C171,-41.42 227.11,-65.42 240.27,-46.87"/>
<polygon fill="black" stroke="black" points="243.7,-47.57 243,-37 236.96,-45.7 243.7,-47.57"/>
</g>
<!-- 5081747216 -->
<g id="node7" class="node">
<title>5081747216</title>
<polygon fill="none" stroke="black" points="108,-146.5 108,-182.5 162,-182.5 162,-146.5 108,-146.5"/>
<text text-anchor="middle" x="135" y="-160.8" font-family="Times,serif" font-size="14.00">CA</text>
</g>
<!-- 5081747216&#45;&gt;5081789296 -->
<g id="edge5" class="edge">
<title>5081747216:s&#45;&gt;5081789296:n</title>
<path fill="none" stroke="black" d="M135,-146C135,-127.62 111.23,-130.28 102.32,-119.79"/>
<polygon fill="black" stroke="black" points="105.53,-118.34 99,-110 98.9,-120.59 105.53,-118.34"/>
</g>
<!-- 5081747216&#45;&gt;5081790976 -->
<g id="edge6" class="edge">
<title>5081747216:s&#45;&gt;5081790976:n</title>
<path fill="none" stroke="black" d="M135,-146C135,-127.62 158.77,-130.28 167.68,-119.79"/>
<polygon fill="black" stroke="black" points="171.1,-120.59 171,-110 164.47,-118.34 171.1,-120.59"/>
</g>
</g>
</svg>
