<?xml version="1.0" encoding="UTF-8" standalone="no"?>
<!DOCTYPE svg PUBLIC "-//W3C//DTD SVG 1.1//EN"
 "http://www.w3.org/Graphics/SVG/1.1/DTD/svg11.dtd">
<!-- Generated by graphviz version 2.49.1 (20210923.0004)
 -->
<!-- Title: labeled partition DAG Pages: 1 -->
<svg width="603pt" height="377pt"
 viewBox="0.00 0.00 603.46 377.00" xmlns="http://www.w3.org/2000/svg" xmlns:xlink="http://www.w3.org/1999/xlink">
<g id="graph0" class="graph" transform="scale(1 1) rotate(0) translate(4 373)">
<title>labeled partition DAG</title>
<polygon fill="white" stroke="transparent" points="-4,4 -4,-373 599.46,-373 599.46,4 -4,4"/>
<!-- 140056775453968 -->
<g id="node1" class="node">
<title>140056775453968</title>
<polygon fill="none" stroke="red" points="10.96,-0.5 10.96,-36.5 64.96,-36.5 64.96,-0.5 10.96,-0.5"/>
<text text-anchor="middle" x="37.96" y="-14.8" font-family="Times,serif" font-size="14.00">TT</text>
</g>
<!-- 140056775453904 -->
<g id="node2" class="node">
<title>140056775453904</title>
<polygon fill="none" stroke="red" points="146.96,-0.5 146.96,-36.5 200.96,-36.5 200.96,-0.5 146.96,-0.5"/>
<text text-anchor="middle" x="173.96" y="-14.8" font-family="Times,serif" font-size="14.00">CC</text>
</g>
<!-- 140056775451536 -->
<g id="node3" class="node">
<title>140056775451536</title>
<polygon fill="none" stroke="red" points="218.96,-0.5 218.96,-36.5 272.96,-36.5 272.96,-0.5 218.96,-0.5"/>
<text text-anchor="middle" x="245.96" y="-14.8" font-family="Times,serif" font-size="14.00">GA</text>
</g>
<!-- 140056775454352 -->
<g id="node4" class="node">
<title>140056775454352</title>
<polygon fill="none" stroke="black" points="174.96,-73.5 174.96,-119.5 246.96,-119.5 246.96,-73.5 174.96,-73.5"/>
<text text-anchor="middle" x="210.96" y="-104.3" font-family="Times,serif" font-size="14.00">CA</text>
<polyline fill="none" stroke="black" points="174.96,-96.5 246.96,-96.5 "/>
<text text-anchor="middle" x="192.46" y="-81.3" font-family="Times,serif" font-size="14.00">CC</text>
<polyline fill="none" stroke="black" points="209.96,-73.5 209.96,-96.5 "/>
<text text-anchor="middle" x="228.46" y="-81.3" font-family="Times,serif" font-size="14.00">GA</text>
</g>
<!-- 140056775454352&#45;&gt;140056775453904 -->
<g id="edge1" class="edge">
<title>140056775454352:CC&#45;&gt;140056775453904:label</title>
<path fill="none" stroke="black" d="M191.96,-73C191.96,-63.98 189.71,-54.52 186.8,-46.06"/>
<polygon fill="black" stroke="black" points="190.04,-44.74 183.17,-36.68 183.51,-47.27 190.04,-44.74"/>
</g>
<!-- 140056775454352&#45;&gt;140056775451536 -->
<g id="edge2" class="edge">
<title>140056775454352:GA&#45;&gt;140056775451536:label</title>
<path fill="none" stroke="black" d="M228.96,-73C228.96,-64.12 231.04,-54.78 233.75,-46.39"/>
<polygon fill="black" stroke="black" points="237.13,-47.32 237.26,-36.73 230.56,-44.93 237.13,-47.32"/>
</g>
<!-- 140056775451408 -->
<g id="node5" class="node">
<title>140056775451408</title>
<polygon fill="none" stroke="black" points="129.46,-156.5 129.46,-202.5 222.46,-202.5 222.46,-156.5 129.46,-156.5"/>
<text text-anchor="middle" x="175.96" y="-187.3" font-family="Times,serif" font-size="14.00">CA</text>
<polyline fill="none" stroke="black" points="129.46,-179.5 222.46,-179.5 "/>
<text text-anchor="middle" x="146.46" y="-164.3" font-family="Times,serif" font-size="14.00">TT</text>
<polyline fill="none" stroke="black" points="163.46,-156.5 163.46,-179.5 "/>
<text text-anchor="middle" x="192.96" y="-164.3" font-family="Times,serif" font-size="14.00">CC,GA</text>
</g>
<!-- 140056775451408&#45;&gt;140056775453968 -->
<g id="edge3" class="edge">
<title>140056775451408:TT&#45;&gt;140056775453968:label</title>
<path fill="none" stroke="black" d="M127.96,-167.5C121.73,-167.5 124.72,-160.01 119.96,-156 91.07,-131.66 64.02,-151.36 42.96,-120 28.59,-98.6 28.99,-68.57 31.99,-46.73"/>
<polygon fill="black" stroke="black" points="35.46,-47.17 33.61,-36.74 28.55,-46.05 35.46,-47.17"/>
</g>
<!-- 140056775451408&#45;&gt;140056775454352 -->
<g id="edge4" class="edge">
<title>140056775451408:CC,GA&#45;&gt;140056775454352:label</title>
<path fill="none" stroke="black" d="M192.96,-156C192.96,-142.16 203.73,-138.9 208.61,-129.85"/>
<polygon fill="black" stroke="black" points="212.04,-130.54 210.96,-120 205.23,-128.91 212.04,-130.54"/>
</g>
<!-- 140056775489296 -->
<g id="node6" class="node">
<title>140056775489296</title>
<polygon fill="none" stroke="red" points="84.96,-73.5 84.96,-119.5 156.96,-119.5 156.96,-73.5 84.96,-73.5"/>
<text text-anchor="middle" x="120.96" y="-104.3" font-family="Times,serif" font-size="14.00">CC</text>
<polyline fill="none" stroke="red" points="84.96,-96.5 156.96,-96.5 "/>
<text text-anchor="middle" x="102.46" y="-81.3" font-family="Times,serif" font-size="14.00">CC</text>
<polyline fill="none" stroke="red" points="119.96,-73.5 119.96,-96.5 "/>
<text text-anchor="middle" x="138.46" y="-81.3" font-family="Times,serif" font-size="14.00">GA</text>
</g>
<!-- 140056775489296&#45;&gt;140056775453968 -->
<!-- 140056775489296&#45;&gt;140056775453904 -->
<g id="edge5" class="edge">
<title>140056775489296:CC&#45;&gt;140056775453904:label</title>
<path fill="none" stroke="red" d="M101.96,-73C101.96,-70.41 121.22,-55.92 139.82,-42.53"/>
<polygon fill="red" stroke="red" points="141.87,-45.37 147.97,-36.7 137.8,-39.67 141.87,-45.37"/>
</g>
<!-- 140056775489296&#45;&gt;140056775451536 -->
<g id="edge6" class="edge">
<title>140056775489296:GA&#45;&gt;140056775451536:label</title>
<path fill="none" stroke="red" d="M157.96,-84.5C164.19,-84.5 161.53,-77.38 165.96,-73 183.68,-55.48 192.96,-53.34 211.14,-42.07"/>
<polygon fill="red" stroke="red" points="213.05,-45 219.53,-36.61 209.23,-39.14 213.05,-45"/>
</g>
<!-- 140056775490320 -->
<g id="node7" class="node">
<title>140056775490320</title>
<polygon fill="none" stroke="red" points="18.46,-156.5 18.46,-202.5 111.46,-202.5 111.46,-156.5 18.46,-156.5"/>
<text text-anchor="middle" x="64.96" y="-187.3" font-family="Times,serif" font-size="14.00">CC</text>
<polyline fill="none" stroke="red" points="18.46,-179.5 111.46,-179.5 "/>
<text text-anchor="middle" x="35.46" y="-164.3" font-family="Times,serif" font-size="14.00">TT</text>
<polyline fill="none" stroke="red" points="52.46,-156.5 52.46,-179.5 "/>
<text text-anchor="middle" x="81.96" y="-164.3" font-family="Times,serif" font-size="14.00">CC,GA</text>
</g>
<!-- 140056775490320&#45;&gt;140056775453968 -->
<g id="edge7" class="edge">
<title>140056775490320:TT&#45;&gt;140056775453968:label</title>
<path fill="none" stroke="red" d="M34.96,-156C34.96,-135.17 12.05,-139.58 4.96,-120 -2.15,-100.36 -0.66,-93.12 4.96,-73 7.62,-63.45 12.47,-53.92 17.63,-45.55"/>
<polygon fill="red" stroke="red" points="20.7,-47.26 23.28,-36.98 14.86,-43.4 20.7,-47.26"/>
</g>
<!-- 140056775490320&#45;&gt;140056775489296 -->
<g id="edge8" class="edge">
<title>140056775490320:CC,GA&#45;&gt;140056775489296:label</title>
<path fill="none" stroke="red" d="M81.96,-156C81.96,-140.15 71.2,-121.36 74.73,-112.95"/>
<polygon fill="red" stroke="red" points="76.47,-116 83.96,-108.5 73.43,-109.69 76.47,-116"/>
</g>
<!-- 140056775453712 -->
<g id="node8" class="node">
<title>140056775453712</title>
<polygon fill="none" stroke="red" points="337.96,-0.5 337.96,-36.5 391.96,-36.5 391.96,-0.5 337.96,-0.5"/>
<text text-anchor="middle" x="364.96" y="-14.8" font-family="Times,serif" font-size="14.00">AA</text>
</g>
<!-- 140056775490512 -->
<g id="node9" class="node">
<title>140056775490512</title>
<polygon fill="none" stroke="red" points="415.96,-0.5 415.96,-36.5 469.96,-36.5 469.96,-0.5 415.96,-0.5"/>
<text text-anchor="middle" x="442.96" y="-14.8" font-family="Times,serif" font-size="14.00">CA</text>
</g>
<!-- 140056775490064 -->
<g id="node10" class="node">
<title>140056775490064</title>
<polygon fill="none" stroke="red" points="487.96,-0.5 487.96,-36.5 541.96,-36.5 541.96,-0.5 487.96,-0.5"/>
<text text-anchor="middle" x="514.96" y="-14.8" font-family="Times,serif" font-size="14.00">GG</text>
</g>
<!-- 140056775491280 -->
<g id="node11" class="node">
<title>140056775491280</title>
<polygon fill="none" stroke="red" points="431.46,-73.5 431.46,-119.5 504.46,-119.5 504.46,-73.5 431.46,-73.5"/>
<text text-anchor="middle" x="467.96" y="-104.3" font-family="Times,serif" font-size="14.00">CA</text>
<polyline fill="none" stroke="red" points="431.46,-96.5 504.46,-96.5 "/>
<text text-anchor="middle" x="449.46" y="-81.3" font-family="Times,serif" font-size="14.00">CA</text>
<polyline fill="none" stroke="red" points="467.46,-73.5 467.46,-96.5 "/>
<text text-anchor="middle" x="485.96" y="-81.3" font-family="Times,serif" font-size="14.00">GG</text>
</g>
<!-- 140056775491280&#45;&gt;140056775490512 -->
<g id="edge9" class="edge">
<title>140056775491280:CA&#45;&gt;140056775490512:label</title>
<path fill="none" stroke="red" d="M448.96,-73C448.96,-64.43 448.22,-55.15 447.26,-46.72"/>
<polygon fill="red" stroke="red" points="450.7,-46.09 445.96,-36.61 443.76,-46.98 450.7,-46.09"/>
</g>
<!-- 140056775491280&#45;&gt;140056775490064 -->
<g id="edge10" class="edge">
<title>140056775491280:GG&#45;&gt;140056775490064:label</title>
<path fill="none" stroke="red" d="M485.96,-73C485.96,-63.4 489.51,-53.84 494.13,-45.47"/>
<polygon fill="red" stroke="red" points="497.14,-47.26 499.44,-36.92 491.19,-43.57 497.14,-47.26"/>
</g>
<!-- 140056775487888 -->
<g id="node12" class="node">
<title>140056775487888</title>
<polygon fill="none" stroke="red" points="145.96,-239.5 145.96,-285.5 321.96,-285.5 321.96,-239.5 145.96,-239.5"/>
<text text-anchor="middle" x="233.96" y="-270.3" font-family="Times,serif" font-size="14.00">AA</text>
<polyline fill="none" stroke="red" points="145.96,-262.5 321.96,-262.5 "/>
<text text-anchor="middle" x="185.46" y="-247.3" font-family="Times,serif" font-size="14.00">CC,GA,TT</text>
<polyline fill="none" stroke="red" points="224.96,-239.5 224.96,-262.5 "/>
<text text-anchor="middle" x="243.46" y="-247.3" font-family="Times,serif" font-size="14.00">AA</text>
<polyline fill="none" stroke="red" points="261.96,-239.5 261.96,-262.5 "/>
<text text-anchor="middle" x="291.96" y="-247.3" font-family="Times,serif" font-size="14.00">CA,GG</text>
</g>
<!-- 140056775487888&#45;&gt;140056775451408 -->
<g id="edge11" class="edge">
<title>140056775487888:CC,GA,TT&#45;&gt;140056775451408:label</title>
<path fill="none" stroke="black" d="M184.96,-239C184.96,-215.74 212.85,-223.95 222.96,-203 223.17,-202.57 223.39,-202.11 223.62,-201.65"/>
<polygon fill="black" stroke="black" points="227.13,-201.61 223.96,-191.5 220.13,-201.38 227.13,-201.61"/>
</g>
<!-- 140056775487888&#45;&gt;140056775490320 -->
<g id="edge12" class="edge">
<title>140056775487888:CC,GA,TT&#45;&gt;140056775490320:label</title>
<path fill="none" stroke="red" d="M144.96,-250.5C143.55,-250.5 126.97,-216.62 118.21,-200.21"/>
<polygon fill="red" stroke="red" points="121.12,-198.26 112.96,-191.5 115.13,-201.87 121.12,-198.26"/>
</g>
<!-- 140056775487888&#45;&gt;140056775453712 -->
<g id="edge13" class="edge">
<title>140056775487888:AA&#45;&gt;140056775453712:label</title>
<path fill="none" stroke="red" d="M243.96,-239C243.96,-192.18 313.87,-239.69 342.96,-203 378.76,-157.85 375.31,-85.88 369.96,-46.5"/>
<polygon fill="red" stroke="red" points="373.41,-45.91 368.46,-36.54 366.48,-46.95 373.41,-45.91"/>
</g>
<!-- 140056775487888&#45;&gt;140056775491280 -->
<g id="edge14" class="edge">
<title>140056775487888:CA,GG&#45;&gt;140056775491280:label</title>
<path fill="none" stroke="red" d="M322.96,-250.5C329.19,-250.5 326.71,-243.55 330.96,-239 348.45,-220.29 359.31,-222.46 375.96,-203 404.95,-169.11 385.27,-117.39 419.92,-109.52"/>
<polygon fill="red" stroke="red" points="420.36,-112.99 429.96,-108.5 419.66,-106.03 420.36,-112.99"/>
</g>
<!-- 140056775490768 -->
<g id="node13" class="node">
<title>140056775490768</title>
<polygon fill="none" stroke="black" points="264.96,-73.5 264.96,-119.5 336.96,-119.5 336.96,-73.5 264.96,-73.5"/>
<text text-anchor="middle" x="300.96" y="-104.3" font-family="Times,serif" font-size="14.00">GC</text>
<polyline fill="none" stroke="black" points="264.96,-96.5 336.96,-96.5 "/>
<text text-anchor="middle" x="282.46" y="-81.3" font-family="Times,serif" font-size="14.00">CC</text>
<polyline fill="none" stroke="black" points="299.96,-73.5 299.96,-96.5 "/>
<text text-anchor="middle" x="318.46" y="-81.3" font-family="Times,serif" font-size="14.00">GA</text>
</g>
<!-- 140056775490768&#45;&gt;140056775453904 -->
<g id="edge15" class="edge">
<title>140056775490768:CC&#45;&gt;140056775453904:label</title>
<path fill="none" stroke="black" d="M263.96,-84.5C257.73,-84.5 260.42,-77.34 255.96,-73 237.63,-55.18 227.85,-53.43 209.05,-42.12"/>
<polygon fill="black" stroke="black" points="210.71,-39.03 200.39,-36.62 206.95,-44.94 210.71,-39.03"/>
</g>
<!-- 140056775490768&#45;&gt;140056775451536 -->
<g id="edge16" class="edge">
<title>140056775490768:GA&#45;&gt;140056775451536:label</title>
<path fill="none" stroke="black" d="M318.96,-73C318.96,-70.38 299.43,-55.89 280.58,-42.51"/>
<polygon fill="black" stroke="black" points="282.5,-39.59 272.31,-36.69 278.47,-45.31 282.5,-39.59"/>
</g>
<!-- 140056775490768&#45;&gt;140056775453712 -->
<!-- 140056775490768&#45;&gt;140056775490512 -->
<!-- 140056775490768&#45;&gt;140056775490064 -->
<!-- 140056775490832 -->
<g id="node14" class="node">
<title>140056775490832</title>
<polygon fill="none" stroke="black" points="240.46,-156.5 240.46,-202.5 333.46,-202.5 333.46,-156.5 240.46,-156.5"/>
<text text-anchor="middle" x="286.96" y="-187.3" font-family="Times,serif" font-size="14.00">GC</text>
<polyline fill="none" stroke="black" points="240.46,-179.5 333.46,-179.5 "/>
<text text-anchor="middle" x="257.46" y="-164.3" font-family="Times,serif" font-size="14.00">TT</text>
<polyline fill="none" stroke="black" points="274.46,-156.5 274.46,-179.5 "/>
<text text-anchor="middle" x="303.96" y="-164.3" font-family="Times,serif" font-size="14.00">CC,GA</text>
</g>
<!-- 140056775490832&#45;&gt;140056775453968 -->
<g id="edge17" class="edge">
<title>140056775490832:TT&#45;&gt;140056775453968:label</title>
<path fill="none" stroke="black" d="M238.96,-167.5C232.73,-167.5 236.11,-159.49 230.96,-156 172.41,-116.32 129.11,-166.65 75.96,-120 54.74,-101.38 45.34,-69.72 41.2,-46.71"/>
<polygon fill="black" stroke="black" points="44.65,-46.15 39.64,-36.82 37.74,-47.24 44.65,-46.15"/>
</g>
<!-- 140056775490832&#45;&gt;140056775490768 -->
<g id="edge18" class="edge">
<title>140056775490832:CC,GA&#45;&gt;140056775490768:label</title>
<path fill="none" stroke="black" d="M303.96,-156C303.96,-143.96 302.27,-138.76 301.43,-130.14"/>
<polygon fill="black" stroke="black" points="304.92,-129.83 300.96,-120 297.93,-130.15 304.92,-129.83"/>
</g>
<!-- 140056775490256 -->
<g id="node15" class="node">
<title>140056775490256</title>
<polygon fill="none" stroke="black" points="522.46,-73.5 522.46,-119.5 595.46,-119.5 595.46,-73.5 522.46,-73.5"/>
<text text-anchor="middle" x="558.96" y="-104.3" font-family="Times,serif" font-size="14.00">CG</text>
<polyline fill="none" stroke="black" points="522.46,-96.5 595.46,-96.5 "/>
<text text-anchor="middle" x="540.46" y="-81.3" font-family="Times,serif" font-size="14.00">CA</text>
<polyline fill="none" stroke="black" points="558.46,-73.5 558.46,-96.5 "/>
<text text-anchor="middle" x="576.96" y="-81.3" font-family="Times,serif" font-size="14.00">GG</text>
</g>
<!-- 140056775490256&#45;&gt;140056775490512 -->
<g id="edge19" class="edge">
<title>140056775490256:CA&#45;&gt;140056775490512:label</title>
<path fill="none" stroke="black" d="M520.96,-84.5C514.98,-84.5 517.96,-77.45 513.96,-73 507.79,-66.12 492.02,-53.87 476.9,-42.72"/>
<polygon fill="black" stroke="black" points="478.78,-39.75 468.64,-36.68 474.65,-45.4 478.78,-39.75"/>
</g>
<!-- 140056775490256&#45;&gt;140056775490064 -->
<g id="edge20" class="edge">
<title>140056775490256:GG&#45;&gt;140056775490064:label</title>
<path fill="none" stroke="black" d="M576.96,-73C576.96,-68.48 561.93,-55.21 546.67,-42.89"/>
<polygon fill="black" stroke="black" points="548.76,-40.07 538.75,-36.58 544.4,-45.55 548.76,-40.07"/>
</g>
<!-- 140056775490192 -->
<g id="node16" class="node">
<title>140056775490192</title>
<polygon fill="none" stroke="black" points="339.96,-239.5 339.96,-285.5 515.96,-285.5 515.96,-239.5 339.96,-239.5"/>
<text text-anchor="middle" x="427.96" y="-270.3" font-family="Times,serif" font-size="14.00">AG</text>
<polyline fill="none" stroke="black" points="339.96,-262.5 515.96,-262.5 "/>
<text text-anchor="middle" x="379.46" y="-247.3" font-family="Times,serif" font-size="14.00">CC,GA,TT</text>
<polyline fill="none" stroke="black" points="418.96,-239.5 418.96,-262.5 "/>
<text text-anchor="middle" x="437.46" y="-247.3" font-family="Times,serif" font-size="14.00">AA</text>
<polyline fill="none" stroke="black" points="455.96,-239.5 455.96,-262.5 "/>
<text text-anchor="middle" x="485.96" y="-247.3" font-family="Times,serif" font-size="14.00">CA,GG</text>
</g>
<!-- 140056775490192&#45;&gt;140056775453712 -->
<g id="edge22" class="edge">
<title>140056775490192:AA&#45;&gt;140056775453712:label</title>
<path fill="none" stroke="black" d="M437.96,-239C437.96,-166.2 401.66,-86.43 380.25,-45.71"/>
<polygon fill="black" stroke="black" points="383.23,-43.86 375.42,-36.7 377.06,-47.17 383.23,-43.86"/>
</g>
<!-- 140056775490192&#45;&gt;140056775490832 -->
<g id="edge21" class="edge">
<title>140056775490192:CC,GA,TT&#45;&gt;140056775490832:label</title>
<path fill="none" stroke="black" d="M338.96,-250.5C329.1,-250.5 339.17,-217.31 339.28,-200.72"/>
<polygon fill="black" stroke="black" points="342.37,-199.07 334.96,-191.5 336.03,-202.04 342.37,-199.07"/>
</g>
<!-- 140056775490192&#45;&gt;140056775490256 -->
<g id="edge23" class="edge">
<title>140056775490192:CA,GG&#45;&gt;140056775490256:label</title>
<path fill="none" stroke="black" d="M485.96,-239C485.96,-180.59 550.66,-181.68 558.24,-130.24"/>
<polygon fill="black" stroke="black" points="561.75,-130.22 558.96,-120 554.76,-129.73 561.75,-130.22"/>
</g>
<!-- 140056774695760 -->
<g id="node17" class="node">
<title>140056774695760</title>
<polygon fill="none" stroke="red" points="255.96,-322.5 255.96,-368.5 405.96,-368.5 405.96,-322.5 255.96,-322.5"/>
<text text-anchor="middle" x="330.96" y="-353.3" font-family="Times,serif" font-size="14.00">𝛒</text>
<polyline fill="none" stroke="red" points="255.96,-345.5 405.96,-345.5 "/>
<text text-anchor="middle" x="330.96" y="-330.3" font-family="Times,serif" font-size="14.00">AA,CA,CC,GA,GG,TT</text>
</g>
<!-- 140056774695760&#45;&gt;140056775487888 -->
<g id="edge28" class="edge">
<title>140056774695760:s&#45;&gt;140056775487888</title>
<path fill="none" stroke="red" d="M330.96,-322C330.96,-309.56 325.03,-299.69 316.11,-291.89"/>
<polygon fill="red" stroke="red" points="318.08,-288.99 307.97,-285.8 313.89,-294.59 318.08,-288.99"/>
</g>
<!-- 140056774695760&#45;&gt;140056775490192 -->
<g id="edge27" class="edge">
<title>140056774695760:s&#45;&gt;140056775490192</title>
<path fill="none" stroke="black" d="M330.96,-322C330.96,-309.56 336.89,-299.69 345.81,-291.89"/>
<polygon fill="black" stroke="black" points="348.03,-294.59 353.95,-285.8 343.84,-288.99 348.03,-294.59"/>
</g>
</g>
</svg>
