<?xml version="1.0" encoding="UTF-8" standalone="no"?>
<!DOCTYPE svg PUBLIC "-//W3C//DTD SVG 1.1//EN"
 "http://www.w3.org/Graphics/SVG/1.1/DTD/svg11.dtd">
<!-- Generated by graphviz version 2.49.1 (20210923.0004)
 -->
<!-- Title: labeled partition DAG Pages: 1 -->
<svg width="332pt" height="264pt"
 viewBox="0.00 0.00 332.00 264.00" xmlns="http://www.w3.org/2000/svg" xmlns:xlink="http://www.w3.org/1999/xlink">
<g id="graph0" class="graph" transform="scale(1 1) rotate(0) translate(4 260)">
<title>labeled partition DAG</title>
<polygon fill="white" stroke="transparent" points="-4,4 -4,-260 328,-260 328,4 -4,4"/>
<!-- 2 -->
<g id="node1" class="node">
<title>2</title>
<polygon fill="none" stroke="red" points="144,-219.5 144,-255.5 198,-255.5 198,-219.5 144,-219.5"/>
<text text-anchor="middle" x="171" y="-233.8" font-family="Times,serif" font-size="14.00">AA</text>
</g>
<!-- 3 -->
<g id="node2" class="node">
<title>3</title>
<polygon fill="none" stroke="red" points="72,-146.5 72,-182.5 126,-182.5 126,-146.5 72,-146.5"/>
<text text-anchor="middle" x="99" y="-160.8" font-family="Times,serif" font-size="14.00">CC</text>
</g>
<!-- 2&#45;&gt;3 -->
<g id="edge1" class="edge">
<title>2:s&#45;&gt;3:n</title>
<path fill="none" stroke="red" d="M171,-219C171,-187.42 114.89,-211.42 101.73,-192.87"/>
<polygon fill="red" stroke="red" points="105.04,-191.7 99,-183 98.3,-193.57 105.04,-191.7"/>
</g>
<!-- 8 -->
<g id="node7" class="node">
<title>8</title>
<polygon fill="none" stroke="red" points="144,-146.5 144,-182.5 198,-182.5 198,-146.5 144,-146.5"/>
<text text-anchor="middle" x="171" y="-160.8" font-family="Times,serif" font-size="14.00">AA</text>
</g>
<!-- 2&#45;&gt;8 -->
<g id="edge6" class="edge">
<title>2:s&#45;&gt;8:n</title>
<path fill="none" stroke="red" d="M171,-219C171,-207 171,-201.75 171,-193.12"/>
<polygon fill="red" stroke="red" points="174.5,-193 171,-183 167.5,-193 174.5,-193"/>
</g>
<!-- 9 -->
<g id="node8" class="node">
<title>9</title>
<polygon fill="none" stroke="red" points="216,-146.5 216,-182.5 270,-182.5 270,-146.5 216,-146.5"/>
<text text-anchor="middle" x="243" y="-160.8" font-family="Times,serif" font-size="14.00">CA</text>
</g>
<!-- 2&#45;&gt;9 -->
<g id="edge7" class="edge">
<title>2:s&#45;&gt;9:n</title>
<path fill="none" stroke="red" d="M171,-219C171,-187.42 227.11,-211.42 240.27,-192.87"/>
<polygon fill="red" stroke="red" points="243.7,-193.57 243,-183 236.96,-191.7 243.7,-193.57"/>
</g>
<!-- 4 -->
<g id="node3" class="node">
<title>4</title>
<polygon fill="none" stroke="red" points="36,-73.5 36,-109.5 90,-109.5 90,-73.5 36,-73.5"/>
<text text-anchor="middle" x="63" y="-87.8" font-family="Times,serif" font-size="14.00">CC</text>
</g>
<!-- 3&#45;&gt;4 -->
<g id="edge3" class="edge">
<title>3:s&#45;&gt;4:n</title>
<path fill="none" stroke="red" d="M99,-146C99,-127.62 75.23,-130.28 66.32,-119.79"/>
<polygon fill="red" stroke="red" points="69.53,-118.34 63,-110 62.9,-120.59 69.53,-118.34"/>
</g>
<!-- 6 -->
<g id="node5" class="node">
<title>6</title>
<polygon fill="none" stroke="red" points="108,-73.5 108,-109.5 162,-109.5 162,-73.5 108,-73.5"/>
<text text-anchor="middle" x="135" y="-87.8" font-family="Times,serif" font-size="14.00">TT</text>
</g>
<!-- 3&#45;&gt;6 -->
<g id="edge2" class="edge">
<title>3:s&#45;&gt;6:n</title>
<path fill="none" stroke="red" d="M99,-146C99,-127.62 122.77,-130.28 131.68,-119.79"/>
<polygon fill="red" stroke="red" points="135.1,-120.59 135,-110 128.47,-118.34 135.1,-120.59"/>
</g>
<!-- 5 -->
<g id="node4" class="node">
<title>5</title>
<polygon fill="none" stroke="red" points="0,-0.5 0,-36.5 54,-36.5 54,-0.5 0,-0.5"/>
<text text-anchor="middle" x="27" y="-14.8" font-family="Times,serif" font-size="14.00">CC</text>
</g>
<!-- 4&#45;&gt;5 -->
<g id="edge4" class="edge">
<title>4:s&#45;&gt;5:n</title>
<path fill="none" stroke="red" d="M63,-73C63,-54.62 39.23,-57.28 30.32,-46.79"/>
<polygon fill="red" stroke="red" points="33.53,-45.34 27,-37 26.9,-47.59 33.53,-45.34"/>
</g>
<!-- 7 -->
<g id="node6" class="node">
<title>7</title>
<polygon fill="none" stroke="red" points="72,-0.5 72,-36.5 126,-36.5 126,-0.5 72,-0.5"/>
<text text-anchor="middle" x="99" y="-14.8" font-family="Times,serif" font-size="14.00">GA</text>
</g>
<!-- 4&#45;&gt;7 -->
<g id="edge5" class="edge">
<title>4:s&#45;&gt;7:n</title>
<path fill="none" stroke="red" d="M63,-73C63,-54.62 86.77,-57.28 95.68,-46.79"/>
<polygon fill="red" stroke="red" points="99.1,-47.59 99,-37 92.47,-45.34 99.1,-47.59"/>
</g>
<!-- 10 -->
<g id="node9" class="node">
<title>10</title>
<polygon fill="none" stroke="red" points="198,-73.5 198,-109.5 252,-109.5 252,-73.5 198,-73.5"/>
<text text-anchor="middle" x="225" y="-87.8" font-family="Times,serif" font-size="14.00">CA</text>
</g>
<!-- 9&#45;&gt;10 -->
<g id="edge8" class="edge">
<title>9:s&#45;&gt;10:n</title>
<path fill="none" stroke="red" d="M243,-146C243,-132.16 232.23,-128.9 227.35,-119.85"/>
<polygon fill="red" stroke="red" points="230.73,-118.91 225,-110 223.92,-120.54 230.73,-118.91"/>
</g>
<!-- 11 -->
<g id="node10" class="node">
<title>11</title>
<polygon fill="none" stroke="red" points="270,-73.5 270,-109.5 324,-109.5 324,-73.5 270,-73.5"/>
<text text-anchor="middle" x="297" y="-87.8" font-family="Times,serif" font-size="14.00">GG</text>
</g>
<!-- 9&#45;&gt;11 -->
<g id="edge9" class="edge">
<title>9:s&#45;&gt;11:n</title>
<path fill="none" stroke="red" d="M243,-146C243,-121.44 282.16,-133.52 293.78,-119.84"/>
<polygon fill="red" stroke="red" points="297.22,-120.59 297,-110 290.57,-118.42 297.22,-120.59"/>
</g>
</g>
</svg>
